<svg width="42" height="42" viewBox="0 0 42 42" fill="none" xmlns="http://www.w3.org/2000/svg">
<path d="M26.3952 12.6666L20.9993 18.0625L15.6035 12.6666L12.666 15.6041L18.0618 21L12.666 26.3958L15.6035 29.3333L20.9993 23.9375L26.3952 29.3333L29.3327 26.3958L23.9368 21L29.3327 15.6041L26.3952 12.6666ZM20.9993 0.166626C9.47851 0.166626 0.166016 9.47913 0.166016 21C0.166016 32.5208 9.47851 41.8333 20.9993 41.8333C32.5202 41.8333 41.8327 32.5208 41.8327 21C41.8327 9.47913 32.5202 0.166626 20.9993 0.166626ZM20.9993 37.6666C11.8118 37.6666 4.33268 30.1875 4.33268 21C4.33268 11.8125 11.8118 4.33329 20.9993 4.33329C30.1868 4.33329 37.666 11.8125 37.666 21C37.666 30.1875 30.1868 37.6666 20.9993 37.6666Z" fill="black" fill-opacity="0.87"/>
</svg>
