<svg width="68" height="68" viewBox="0 0 68 68" fill="none" xmlns="http://www.w3.org/2000/svg">
<path d="M27.3337 49L47.3337 34L27.3337 19V49ZM34.0003 0.666672C15.6003 0.666672 0.666992 15.6 0.666992 34C0.666992 52.4 15.6003 67.3333 34.0003 67.3333C52.4003 67.3333 67.3337 52.4 67.3337 34C67.3337 15.6 52.4003 0.666672 34.0003 0.666672ZM34.0003 60.6667C19.3003 60.6667 7.33366 48.7 7.33366 34C7.33366 19.3 19.3003 7.33334 34.0003 7.33334C48.7003 7.33334 60.667 19.3 60.667 34C60.667 48.7 48.7003 60.6667 34.0003 60.6667Z" fill="#F3EEE2"/>
</svg>
